<svg width="18" height="18" viewBox="0 0 18 18" fill="none" xmlns="http://www.w3.org/2000/svg">
<path d="M16.8535 1.70298C17.0488 1.50772 17.0488 1.19114 16.8535 0.995873C16.6582 0.800611 16.3417 0.800611 16.1464 0.995873L8.76761 8.37465L1.38883 0.995873C1.19357 0.800611 0.876987 0.800611 0.681725 0.995873C0.486463 1.19114 0.486463 1.50772 0.681725 1.70298L8.06051 9.08176L0.681725 16.4605C0.486463 16.6558 0.486463 16.9724 0.681725 17.1677C0.876987 17.3629 1.19357 17.3629 1.38883 17.1677L8.76761 9.78887L16.1464 17.1677C16.3417 17.3629 16.6582 17.3629 16.8535 17.1677C17.0488 16.9724 17.0488 16.6558 16.8535 16.4605L9.47472 9.08176L16.8535 1.70298Z" fill="#FF4C00" stroke="#FF4D00" stroke-linecap="round"/>
</svg>
