<svg width="30" height="31" viewBox="0 0 30 31" fill="none" xmlns="http://www.w3.org/2000/svg">
<path fill-rule="evenodd" clip-rule="evenodd" d="M16.5 13.809H21V16.809H16.5V21.309H13.5V16.809H9V13.809H13.5V9.30902H16.5V13.809ZM15 27.309C8.3835 27.309 3 21.9255 3 15.309C3 8.69252 8.3835 3.30902 15 3.30902C21.6165 3.30902 27 8.69252 27 15.309C27 21.9255 21.6165 27.309 15 27.309ZM15 0.309021C6.7155 0.309021 0 7.02452 0 15.309C0 23.5935 6.7155 30.309 15 30.309C23.2845 30.309 30 23.5935 30 15.309C30 7.02452 23.2845 0.309021 15 0.309021Z" fill="#FF4D00"/>
</svg>
