<svg width="30" height="31" viewBox="0 0 30 31" fill="none" xmlns="http://www.w3.org/2000/svg">
<path fill-rule="evenodd" clip-rule="evenodd" d="M16.5 14.4046H21V17.4046H16.5V21.9046H13.5V17.4046H9V14.4046H13.5V9.90463H16.5V14.4046ZM15 27.9046C8.3835 27.9046 3 22.5211 3 15.9046C3 9.28813 8.3835 3.90463 15 3.90463C21.6165 3.90463 27 9.28813 27 15.9046C27 22.5211 21.6165 27.9046 15 27.9046ZM15 0.904633C6.7155 0.904633 0 7.62013 0 15.9046C0 24.1891 6.7155 30.9046 15 30.9046C23.2845 30.9046 30 24.1891 30 15.9046C30 7.62013 23.2845 0.904633 15 0.904633Z" fill="#FF4C00"/>
</svg>
