<svg width="30" height="30" viewBox="0 0 30 30" fill="none" xmlns="http://www.w3.org/2000/svg">
<g opacity="0.7">
<path fill-rule="evenodd" clip-rule="evenodd" d="M24.8061 26.2111H5.37683C4.51271 26.2111 3.85007 25.4463 3.9721 24.5921L5.59393 13.2408C5.69325 12.5412 6.29203 12.0219 6.99865 12.0219H7.99616V14.8598C7.99616 15.643 8.63183 16.2787 9.41507 16.2787C10.1997 16.2787 10.834 15.643 10.834 14.8598V12.0219H19.3475V14.8598C19.3475 15.643 19.9832 16.2787 20.7664 16.2787C21.5511 16.2787 22.1853 15.643 22.1853 14.8598V12.0219H23.1843C23.8909 12.0219 24.4897 12.5412 24.589 13.2408L26.2108 24.5921C26.3328 25.4463 25.6702 26.2111 24.8061 26.2111ZM10.834 7.76516C10.834 5.41827 12.7439 3.5084 15.0907 3.5084C17.4391 3.5084 19.3475 4.92732 19.3475 7.76516V9.18408H10.834V7.76516ZM29.2516 25.8095L27.2239 11.6204C27.0253 10.2227 25.8277 9.18408 24.4145 9.18408H22.1853V7.76516C22.1853 3.5084 19.0027 0.670563 15.0907 0.670563C11.1802 0.670563 7.99616 3.8532 7.99616 7.76516V9.18408H6.20122C4.7894 9.18408 3.15764 10.2227 2.95757 11.6204L0.931358 25.8095C0.687304 27.5193 2.01399 29.0489 3.74082 29.0489H26.4421C28.1689 29.0489 29.4956 27.5193 29.2516 25.8095Z" fill="black"/>
</g>
</svg>
